<svg version="1.1" id="Layer_1" xmlns="http://www.w3.org/2000/svg" x="0" y="0" viewBox="0 0 396 208" style="enable-background:new 0 0 396 208" xml:space="preserve"><style>.st0{fill:#fff}</style><path d="M130.7 136.9c3.6-1.4 6.4-3.5 8.3-6.2 2.3-3.2 3.4-7.2 3.4-12.1 0-6.2-2.2-11.2-6.5-14.8-4.3-3.6-10.2-5.4-17.6-5.4H89.5v77.4h30.2c5 0 9.3-.8 13-2.5 3.6-1.6 6.4-4 8.4-7.1 2-3.1 3-6.7 3-11 0-5-1.3-9.1-3.9-12.3-2.3-2.7-5.4-4.7-9.5-6zm-32.1-30.3H118c4.9 0 8.6 1.1 11.2 3.4 2.6 2.3 3.9 5.4 3.9 9.5 0 4.4-1.2 7.7-3.7 10.1s-6 3.5-10.6 3.5H98.6v-26.5zm32 57.5c-2.7 2.4-6.3 3.5-11.1 3.5h-21V141h21c4.7 0 8.4 1.1 11.1 3.4 2.7 2.3 4 5.5 4 9.7 0 4.3-1.3 7.6-4 10zM188.3 124.2c-3.2-1.5-6.9-2.2-11.1-2.2-4.3 0-8.1.7-11.5 2.2-3.3 1.5-5.9 3.5-7.7 6.2-1.8 2.7-2.7 5.8-2.7 9.4h7.8c0-3.4 1.2-6 3.6-7.8 2.4-1.8 5.8-2.7 10.2-2.7 2.5 0 4.7.4 6.7 1.1 2 .8 3.5 2.1 4.7 3.9 1.1 1.9 1.7 4.4 1.7 7.6v1.6l-16.9 1.3c-6.2.5-11 2.2-14.4 5.1-3.4 2.9-5.1 6.7-5.1 11.5 0 4.7 1.6 8.4 4.7 11.3 3.1 2.9 7.5 4.4 13.1 4.4 4.3 0 8.1-.9 11.5-2.7 3.4-1.8 5.8-4.3 7.3-7.4l1 8.8h7.4v-33.3c0-4.7-.9-8.5-2.7-11.5-1.9-3-4.4-5.3-7.6-6.8zm1.8 28.5c0 5.2-1.5 9.5-4.4 12.7-2.9 3.2-6.9 4.8-12 4.8-3.4 0-6.2-.8-8.2-2.3-2-1.5-3.1-3.8-3.1-6.7 0-2.7 1-5 3.1-6.8s5.4-3 10.2-3.4l14.4-1.2v2.9zM212.7 123.4h8.7v52.4h-8.7zM217 97.8c-1.6 0-3.1.6-4.3 1.8-1.2 1.2-1.8 2.7-1.8 4.4 0 1.6.6 3 1.8 4.2 1.2 1.2 2.7 1.8 4.3 1.8 1.7 0 3.2-.6 4.4-1.8 1.2-1.2 1.8-2.6 1.8-4.2 0-1.7-.6-3.2-1.8-4.4-1.2-1.1-2.7-1.8-4.4-1.8zM234.3 97.1h8.7v78.7h-8.7zM291 167.2c-2.6 1.7-6 2.5-10.1 2.5-5.6 0-9.9-1.8-13-5.4-2.7-3.2-4.2-7.6-4.5-13.1l41-.1v-3.7c0-5.1-1-9.5-3-13.3-2-3.8-4.8-6.8-8.4-8.9-3.7-2.1-7.9-3.2-12.8-3.2s-9.3 1.2-13.1 3.5c-3.8 2.3-6.8 5.6-8.9 9.7-2.2 4.2-3.2 9-3.2 14.4s1.1 10.2 3.3 14.4c2.2 4.1 5.2 7.3 9.1 9.6 3.9 2.3 8.3 3.4 13.4 3.4 6.3 0 11.5-1.5 15.6-4.5s6.8-7.2 8.1-12.7h-8.3c-.9 3.2-2.6 5.7-5.2 7.4zm-25.6-28.6c1.4-2.9 3.3-5.2 5.9-6.8 2.5-1.6 5.5-2.4 9-2.4 4.7 0 8.5 1.4 11.3 4.3 2.8 2.9 4.2 6.6 4.2 11.3h-32.1c.2-2.3.8-4.5 1.7-6.4zM333.6 167.4l-16.1-43.9h-9.2l21.2 55.3-2 5.6c-.8 2.3-1.8 4-3 5s-2.5 1.7-3.9 2c-1.4.3-2.9.4-4.5.4h-6.2v7.2c1.3.3 2.6.5 3.9.7 1.3.2 2.8.3 4.4.3 3.9 0 7.2-1 9.8-2.9 2.6-1.9 4.7-5.1 6.4-9.4l24.3-64.2h-8.9l-16.2 43.9zM130.7 47.1c3.6-1.4 6.4-3.5 8.3-6.2 2.3-3.2 3.4-7.2 3.4-12.1 0-6.2-2.2-11.2-6.5-14.8-4.3-3.6-10.2-5.4-17.6-5.4H89.5V86h30.2c5 0 9.3-.8 13-2.5 3.6-1.6 6.4-4 8.4-7.1 2-3.1 3-6.7 3-11 0-5-1.3-9.1-3.9-12.3-2.3-2.7-5.4-4.7-9.5-6zM98.6 16.8H118c4.9 0 8.6 1.1 11.2 3.4 2.6 2.3 3.9 5.4 3.9 9.5 0 4.4-1.2 7.7-3.7 10.1s-6 3.5-10.6 3.5H98.6V16.8zm32 57.5c-2.7 2.4-6.3 3.5-11.1 3.5h-21V51.3h21c4.7 0 8.4 1.1 11.1 3.4 2.7 2.3 4 5.5 4 9.7 0 4.2-1.3 7.5-4 9.9zM188.3 34.5c-3.2-1.5-6.9-2.2-11.1-2.2-4.3 0-8.1.7-11.5 2.2-3.3 1.5-5.9 3.5-7.7 6.2-1.8 2.7-2.7 5.8-2.7 9.4h7.8c0-3.4 1.2-6 3.6-7.8 2.4-1.8 5.8-2.7 10.2-2.7 2.5 0 4.7.4 6.7 1.1 2 .8 3.5 2.1 4.7 3.9 1.1 1.9 1.7 4.4 1.7 7.6v1.6l-16.9 1.3c-6.2.5-11 2.2-14.4 5.1-3.4 2.9-5.1 6.7-5.1 11.5 0 4.7 1.6 8.4 4.7 11.3 3.1 2.9 7.5 4.4 13.1 4.4 4.3 0 8.1-.9 11.5-2.7 3.4-1.8 5.8-4.3 7.3-7.4l1 8.8h7.4V52.7c0-4.7-.9-8.5-2.7-11.5-1.9-3-4.4-5.3-7.6-6.7zm1.8 28.4c0 5.2-1.5 9.5-4.4 12.7-2.9 3.2-6.9 4.8-12 4.8-3.4 0-6.2-.8-8.2-2.3-2-1.5-3.1-3.8-3.1-6.7 0-2.7 1-5 3.1-6.8s5.4-3 10.2-3.4l14.4-1.2v2.9zM238.6 60 257 33.7h-10L233.2 54l-14.1-20.3h-10.2L227.3 60l-18.5 26H219l13.7-20.1L246.6 86h10.2zM273.1 86h8.8V41.1h10.4v-7.4h-10.4V17.3h-8.8v16.4h-10.3v7.4h10.3zM309.6 83.9c3.9 2.3 8.3 3.4 13.4 3.4 6.3 0 11.5-1.5 15.6-4.5s6.8-7.2 8.1-12.7h-8.3c-.9 3.2-2.7 5.6-5.3 7.3-2.6 1.7-6 2.5-10.1 2.5-5.6 0-9.9-1.8-13-5.4-2.7-3.2-4.2-7.6-4.5-13.1l41-.1v-3.7c0-5.1-1-9.5-3-13.3-2-3.8-4.8-6.8-8.4-8.9-3.7-2.1-7.9-3.2-12.8-3.2s-9.3 1.2-13.1 3.5c-3.8 2.3-6.8 5.6-8.9 9.7-2.2 4.2-3.2 9-3.2 14.4s1.1 10.2 3.3 14.4c2.3 4.2 5.3 7.4 9.2 9.7zm-2-35.1c1.4-2.9 3.3-5.2 5.9-6.8 2.5-1.6 5.5-2.4 9-2.4 4.7 0 8.5 1.4 11.3 4.3 2.8 2.9 4.2 6.6 4.2 11.3h-32.1c.3-2.3.8-4.5 1.7-6.4zM384.4 32.7c-.8-.1-1.6-.1-2.5-.1-4.1 0-7.5 1.1-10.2 3.2-2.1 1.6-3.6 3.7-4.5 6.1l-.7-8.1h-8.2V86h8.7V57.2c0-5 1.4-8.9 4.2-11.8 2.8-2.8 6.6-4.2 11.3-4.2h4.4v-8c-.8-.3-1.7-.4-2.5-.5zM68.8 159.6c2.9-5.6 4.4-12.1 4.4-19.6h-8.6c0 6.2-1 11.4-3 15.8l-19.8-22.6c4.9-3.3 8.4-6.5 10.6-9.5 2.4-3.3 3.5-6.9 3.5-10.9 0-3.2-.7-5.9-2.2-8.2-1.5-2.3-3.5-4.1-6.1-5.4-2.6-1.3-5.6-1.9-9.1-1.9s-6.6.7-9.3 2c-2.7 1.4-4.8 3.3-6.3 5.7-1.5 2.4-2.3 5.3-2.3 8.5 0 2.9.8 5.7 2.3 8.5 1.5 2.6 3.8 5.9 7.1 9.8-3.9 2.1-7.3 4.3-9.9 6.4-3.2 2.6-5.6 5.3-7.1 8.3-1.5 2.9-2.3 6.1-2.3 9.5 0 4.3 1.1 8 3.4 11.2 2.3 3.2 5.4 5.6 9.5 7.4 4.1 1.8 8.9 2.7 14.3 2.7 7.2 0 13.4-1.5 18.6-4.6 2.1-1.2 3.9-2.6 5.6-4.2l6.5 7.4H79l-11.9-13.6c.7-.9 1.2-1.8 1.7-2.7zm-39-42.3c-.5-1.3-.8-2.6-.8-3.9 0-2.7.9-4.9 2.6-6.5 1.7-1.6 4-2.4 7-2.4 2.9 0 5.1.8 6.7 2.3 1.6 1.5 2.4 3.6 2.4 6.3 0 3.1-.9 5.9-2.8 8.5-1.7 2.3-4.2 4.5-7.5 6.5-2.2-2.5-3.8-4.6-5-6.3-1.3-1.7-2.1-3.2-2.6-4.5zm8.8 52.3c-5.8 0-10.4-1.3-13.8-3.8-3.4-2.5-5.1-6-5.1-10.4 0-2.7.6-5.1 1.7-7.2 1.1-2.2 2.9-4.2 5.3-6.2 2-1.7 4.6-3.4 7.8-5.1l22.6 25.7c-4.5 4.6-10.7 7-18.5 7z"/></svg>