<?xml version="1.0" encoding="utf-8"?>
<!-- Generator: Adobe Illustrator 27.5.0, SVG Export Plug-In . SVG Version: 6.00 Build 0)  -->
<svg version="1.1" id="Layer_1" xmlns="http://www.w3.org/2000/svg" xmlns:xlink="http://www.w3.org/1999/xlink" x="0px" y="0px"
	 viewBox="0 0 396 208" style="enable-background:new 0 0 396 208;" xml:space="preserve">
<style type="text/css">
	.st0{fill:#FFFFFF;}
</style>
<g>
	<path d="M130.7,136.9c3.6-1.4,6.4-3.5,8.3-6.2c2.3-3.2,3.4-7.2,3.4-12.1c0-6.2-2.2-11.2-6.5-14.8c-4.3-3.6-10.2-5.4-17.6-5.4H89.5
		v77.4h30.2c5,0,9.3-0.8,13-2.5c3.6-1.6,6.4-4,8.4-7.1c2-3.1,3-6.7,3-11c0-5-1.3-9.1-3.9-12.3C137.9,140.2,134.8,138.2,130.7,136.9z
		 M98.6,106.6H118c4.9,0,8.6,1.1,11.2,3.4c2.6,2.3,3.9,5.4,3.9,9.5c0,4.4-1.2,7.7-3.7,10.1s-6,3.5-10.6,3.5H98.6V106.6z
		 M130.6,164.1c-2.7,2.4-6.3,3.5-11.1,3.5h-21v-26.6h21c4.7,0,8.4,1.1,11.1,3.4c2.7,2.3,4,5.5,4,9.7
		C134.6,158.4,133.3,161.7,130.6,164.1z"/>
	<path d="M188.3,124.2c-3.2-1.5-6.9-2.2-11.1-2.2c-4.3,0-8.1,0.7-11.5,2.2c-3.3,1.5-5.9,3.5-7.7,6.2c-1.8,2.7-2.7,5.8-2.7,9.4h7.8
		c0-3.4,1.2-6,3.6-7.8c2.4-1.8,5.8-2.7,10.2-2.7c2.5,0,4.7,0.4,6.7,1.1c2,0.8,3.5,2.1,4.7,3.9c1.1,1.9,1.7,4.4,1.7,7.6v1.6
		l-16.9,1.3c-6.2,0.5-11,2.2-14.4,5.1c-3.4,2.9-5.1,6.7-5.1,11.5c0,4.7,1.6,8.4,4.7,11.3c3.1,2.9,7.5,4.4,13.1,4.4
		c4.3,0,8.1-0.9,11.5-2.7c3.4-1.8,5.8-4.3,7.3-7.4l1,8.8h7.4v-33.3c0-4.7-0.9-8.5-2.7-11.5C194,128,191.5,125.7,188.3,124.2z
		 M190.1,152.7c0,5.2-1.5,9.5-4.4,12.7c-2.9,3.2-6.9,4.8-12,4.8c-3.4,0-6.2-0.8-8.2-2.3c-2-1.5-3.1-3.8-3.1-6.7c0-2.7,1-5,3.1-6.8
		s5.4-3,10.2-3.4l14.4-1.2V152.7z"/>
	<rect x="212.7" y="123.4" width="8.7" height="52.4"/>
	<path d="M217,97.8c-1.6,0-3.1,0.6-4.3,1.8c-1.2,1.2-1.8,2.7-1.8,4.4c0,1.6,0.6,3,1.8,4.2c1.2,1.2,2.7,1.8,4.3,1.8
		c1.7,0,3.2-0.6,4.4-1.8c1.2-1.2,1.8-2.6,1.8-4.2c0-1.7-0.6-3.2-1.8-4.4C220.2,98.5,218.7,97.8,217,97.8z"/>
	<rect x="234.3" y="97.1" width="8.7" height="78.7"/>
	<path d="M291,167.2c-2.6,1.7-6,2.5-10.1,2.5c-5.6,0-9.9-1.8-13-5.4c-2.7-3.2-4.2-7.6-4.5-13.1l41-0.1v-3.7c0-5.1-1-9.5-3-13.3
		c-2-3.8-4.8-6.8-8.4-8.9c-3.7-2.1-7.9-3.2-12.8-3.2c-4.9,0-9.3,1.2-13.1,3.5c-3.8,2.3-6.8,5.6-8.9,9.7c-2.2,4.2-3.2,9-3.2,14.4
		c0,5.4,1.1,10.2,3.3,14.4c2.2,4.1,5.2,7.3,9.1,9.6c3.9,2.3,8.3,3.4,13.4,3.4c6.3,0,11.5-1.5,15.6-4.5c4.1-3,6.8-7.2,8.1-12.7h-8.3
		C295.3,163,293.6,165.5,291,167.2z M265.4,138.6c1.4-2.9,3.3-5.2,5.9-6.8c2.5-1.6,5.5-2.4,9-2.4c4.7,0,8.5,1.4,11.3,4.3
		c2.8,2.9,4.2,6.6,4.2,11.3h-32.1C263.9,142.7,264.5,140.5,265.4,138.6z"/>
	<path d="M333.6,167.4l-16.1-43.9h-9.2l21.2,55.3l-2,5.6c-0.8,2.3-1.8,4-3,5c-1.2,1-2.5,1.7-3.9,2c-1.4,0.3-2.9,0.4-4.5,0.4h-6.2
		v7.2c1.3,0.3,2.6,0.5,3.9,0.7c1.3,0.2,2.8,0.3,4.4,0.3c3.9,0,7.2-1,9.8-2.9c2.6-1.9,4.7-5.1,6.4-9.4l24.3-64.2h-8.9L333.6,167.4z"
		/>
	<path d="M130.7,47.1c3.6-1.4,6.4-3.5,8.3-6.2c2.3-3.2,3.4-7.2,3.4-12.1c0-6.2-2.2-11.2-6.5-14.8c-4.3-3.6-10.2-5.4-17.6-5.4H89.5
		V86h30.2c5,0,9.3-0.8,13-2.5c3.6-1.6,6.4-4,8.4-7.1c2-3.1,3-6.7,3-11c0-5-1.3-9.1-3.9-12.3C137.9,50.4,134.8,48.4,130.7,47.1z
		 M98.6,16.8H118c4.9,0,8.6,1.1,11.2,3.4c2.6,2.3,3.9,5.4,3.9,9.5c0,4.4-1.2,7.7-3.7,10.1s-6,3.5-10.6,3.5H98.6V16.8z M130.6,74.3
		c-2.7,2.4-6.3,3.5-11.1,3.5h-21V51.3h21c4.7,0,8.4,1.1,11.1,3.4c2.7,2.3,4,5.5,4,9.7C134.6,68.6,133.3,71.9,130.6,74.3z"/>
	<path d="M188.3,34.5c-3.2-1.5-6.9-2.2-11.1-2.2c-4.3,0-8.1,0.7-11.5,2.2c-3.3,1.5-5.9,3.5-7.7,6.2c-1.8,2.7-2.7,5.8-2.7,9.4h7.8
		c0-3.4,1.2-6,3.6-7.8c2.4-1.8,5.8-2.7,10.2-2.7c2.5,0,4.7,0.4,6.7,1.1c2,0.8,3.5,2.1,4.7,3.9c1.1,1.9,1.7,4.4,1.7,7.6v1.6
		l-16.9,1.3c-6.2,0.5-11,2.2-14.4,5.1c-3.4,2.9-5.1,6.7-5.1,11.5c0,4.7,1.6,8.4,4.7,11.3c3.1,2.9,7.5,4.4,13.1,4.4
		c4.3,0,8.1-0.9,11.5-2.7c3.4-1.8,5.8-4.3,7.3-7.4l1,8.8h7.4V52.7c0-4.7-0.9-8.5-2.7-11.5C194,38.2,191.5,35.9,188.3,34.5z
		 M190.1,62.9c0,5.2-1.5,9.5-4.4,12.7c-2.9,3.2-6.9,4.8-12,4.8c-3.4,0-6.2-0.8-8.2-2.3c-2-1.5-3.1-3.8-3.1-6.7c0-2.7,1-5,3.1-6.8
		s5.4-3,10.2-3.4l14.4-1.2V62.9z"/>
	<polygon points="238.6,60 257,33.7 247,33.7 233.2,54 219.1,33.7 208.9,33.7 227.3,60 208.8,86 219,86 232.7,65.9 246.6,86 
		256.8,86 	"/>
	<polygon points="273.1,86 281.9,86 281.9,41.1 292.3,41.1 292.3,33.7 281.9,33.7 281.9,17.3 273.1,17.3 273.1,33.7 262.8,33.7 
		262.8,41.1 273.1,41.1 	"/>
	<path d="M309.6,83.9c3.9,2.3,8.3,3.4,13.4,3.4c6.3,0,11.5-1.5,15.6-4.5c4.1-3,6.8-7.2,8.1-12.7h-8.3c-0.9,3.2-2.7,5.6-5.3,7.3
		c-2.6,1.7-6,2.5-10.1,2.5c-5.6,0-9.9-1.8-13-5.4c-2.7-3.2-4.2-7.6-4.5-13.1l41-0.1v-3.7c0-5.1-1-9.5-3-13.3c-2-3.8-4.8-6.8-8.4-8.9
		c-3.7-2.1-7.9-3.2-12.8-3.2c-4.9,0-9.3,1.2-13.1,3.5c-3.8,2.3-6.8,5.6-8.9,9.7c-2.2,4.2-3.2,9-3.2,14.4c0,5.4,1.1,10.2,3.3,14.4
		C302.7,78.4,305.7,81.6,309.6,83.9z M307.6,48.8c1.4-2.9,3.3-5.2,5.9-6.8c2.5-1.6,5.5-2.4,9-2.4c4.7,0,8.5,1.4,11.3,4.3
		c2.8,2.9,4.2,6.6,4.2,11.3h-32.1C306.2,52.9,306.7,50.7,307.6,48.8z"/>
	<path d="M384.4,32.7c-0.8-0.1-1.6-0.1-2.5-0.1c-4.1,0-7.5,1.1-10.2,3.2c-2.1,1.6-3.6,3.7-4.5,6.1l-0.7-8.1h-8.2V86h8.7V57.2
		c0-5,1.4-8.9,4.2-11.8c2.8-2.8,6.6-4.2,11.3-4.2h4.4v-8C386.1,32.9,385.2,32.8,384.4,32.7z"/>
	<path d="M68.8,159.6c2.9-5.6,4.4-12.1,4.4-19.6h-8.6c0,6.2-1,11.4-3,15.8l-19.8-22.6c4.9-3.3,8.4-6.5,10.6-9.5
		c2.4-3.3,3.5-6.9,3.5-10.9c0-3.2-0.7-5.9-2.2-8.2c-1.5-2.3-3.5-4.1-6.1-5.4c-2.6-1.3-5.6-1.9-9.1-1.9c-3.5,0-6.6,0.7-9.3,2
		c-2.7,1.4-4.8,3.3-6.3,5.7c-1.5,2.4-2.3,5.3-2.3,8.5c0,2.9,0.8,5.7,2.3,8.5c1.5,2.6,3.8,5.9,7.1,9.8c-3.9,2.1-7.3,4.3-9.9,6.4
		c-3.2,2.6-5.6,5.3-7.1,8.3c-1.5,2.9-2.3,6.1-2.3,9.5c0,4.3,1.1,8,3.4,11.2c2.3,3.2,5.4,5.6,9.5,7.4c4.1,1.8,8.9,2.7,14.3,2.7
		c7.2,0,13.4-1.5,18.6-4.6c2.1-1.2,3.9-2.6,5.6-4.2l6.5,7.4h10.4l-11.9-13.6C67.8,161.4,68.3,160.5,68.8,159.6z M29.8,117.3
		c-0.5-1.3-0.8-2.6-0.8-3.9c0-2.7,0.9-4.9,2.6-6.5c1.7-1.6,4-2.4,7-2.4c2.9,0,5.1,0.8,6.7,2.3c1.6,1.5,2.4,3.6,2.4,6.3
		c0,3.1-0.9,5.9-2.8,8.5c-1.7,2.3-4.2,4.5-7.5,6.5c-2.2-2.5-3.8-4.6-5-6.3C31.1,120.1,30.3,118.6,29.8,117.3z M38.6,169.6
		c-5.8,0-10.4-1.3-13.8-3.8c-3.4-2.5-5.1-6-5.1-10.4c0-2.7,0.6-5.1,1.7-7.2c1.1-2.2,2.9-4.2,5.3-6.2c2-1.7,4.6-3.4,7.8-5.1
		l22.6,25.7C52.6,167.2,46.4,169.6,38.6,169.6z"/>
</g>
</svg>
