<?xml version="1.0" encoding="utf-8"?>
<!-- Generator: Adobe Illustrator 27.5.0, SVG Export Plug-In . SVG Version: 6.00 Build 0)  -->
<svg version="1.1" id="Layer_1" xmlns="http://www.w3.org/2000/svg" xmlns:xlink="http://www.w3.org/1999/xlink" x="0px" y="0px"
	 viewBox="0 0 156.2 187.1" style="enable-background:new 0 0 156.2 187.1;" xml:space="preserve">
<style type="text/css">
	.st0{fill:#FFFFFF;}
</style>
<g>
	<path class="st0" d="M130.7,136.9c3.6-1.4,6.4-3.5,8.3-6.2c2.3-3.2,3.4-7.2,3.4-12.1c0-6.2-2.2-11.2-6.5-14.8
		c-4.3-3.6-10.2-5.4-17.6-5.4H89.5v77.4h30.2c5,0,9.3-0.8,13-2.5c3.6-1.6,6.4-4,8.4-7.1c2-3.1,3-6.7,3-11c0-5-1.3-9.1-3.9-12.3
		C137.9,140.2,134.8,138.2,130.7,136.9z M98.6,106.6H118c4.9,0,8.6,1.1,11.2,3.4c2.6,2.3,3.9,5.4,3.9,9.5c0,4.4-1.2,7.7-3.7,10.1
		c-2.5,2.4-6,3.5-10.6,3.5H98.6V106.6z M130.6,164.1c-2.7,2.4-6.3,3.5-11.1,3.5h-21v-26.6h21c4.7,0,8.4,1.1,11.1,3.4
		c2.7,2.3,4,5.5,4,9.7C134.6,158.4,133.3,161.7,130.6,164.1z"/>
	<path class="st0" d="M132.6,83.5c3.6-1.6,6.4-4,8.4-7.1c2-3.1,3-6.7,3-11c0-5-1.3-9.1-3.9-12.3c-2.2-2.7-5.3-4.8-9.4-6.1
		c3.6-1.4,6.4-3.5,8.3-6.2c2.3-3.2,3.4-7.2,3.4-12.1c0-6.2-2.2-11.2-6.5-14.8c-4.3-3.6-10.2-5.4-17.6-5.4H89.5V86h30.2
		C124.7,86,129,85.2,132.6,83.5z M98.6,16.8H118c4.9,0,8.6,1.1,11.2,3.4c2.6,2.3,3.9,5.4,3.9,9.5c0,4.4-1.2,7.7-3.7,10.1
		s-6,3.5-10.6,3.5H98.6V16.8z M98.6,77.8V51.3h21c4.7,0,8.4,1.1,11.1,3.4c2.7,2.3,4,5.5,4,9.7c0,4.2-1.3,7.5-4,9.9
		c-2.7,2.4-6.3,3.5-11.1,3.5H98.6z"/>
	<path class="st0" d="M68.8,159.6c2.9-5.6,4.4-12.1,4.4-19.6h-8.6c0,6.2-1,11.4-3,15.8l-19.8-22.6c4.9-3.3,8.4-6.5,10.6-9.5
		c2.4-3.3,3.5-6.9,3.5-10.9c0-3.2-0.7-5.9-2.2-8.2c-1.5-2.3-3.5-4.1-6.1-5.4c-2.6-1.3-5.6-1.9-9.1-1.9c-3.5,0-6.6,0.7-9.3,2
		c-2.7,1.4-4.8,3.3-6.3,5.7c-1.5,2.4-2.3,5.3-2.3,8.5c0,2.9,0.8,5.7,2.3,8.5c1.5,2.6,3.8,5.9,7.1,9.8c-3.9,2.1-7.3,4.3-9.9,6.4
		c-3.2,2.6-5.6,5.3-7.1,8.3c-1.5,2.9-2.3,6.1-2.3,9.5c0,4.3,1.1,8,3.4,11.2c2.3,3.2,5.4,5.6,9.5,7.4c4.1,1.8,8.9,2.7,14.3,2.7
		c7.2,0,13.4-1.5,18.6-4.6c2.1-1.2,3.9-2.6,5.6-4.2l6.5,7.4h10.4l-11.9-13.6C67.8,161.4,68.3,160.5,68.8,159.6z M29.8,117.3
		c-0.5-1.3-0.8-2.6-0.8-3.9c0-2.7,0.9-4.9,2.6-6.5c1.7-1.6,4-2.4,7-2.4c2.9,0,5.1,0.8,6.7,2.3c1.6,1.5,2.4,3.6,2.4,6.3
		c0,3.1-0.9,5.9-2.8,8.5c-1.7,2.3-4.2,4.5-7.5,6.5c-2.2-2.5-3.8-4.6-5-6.3C31.1,120.1,30.3,118.6,29.8,117.3z M38.6,169.6
		c-5.8,0-10.4-1.3-13.8-3.8c-3.4-2.5-5.1-6-5.1-10.4c0-2.7,0.6-5.1,1.7-7.2c1.1-2.2,2.9-4.2,5.3-6.2c2-1.7,4.6-3.4,7.8-5.1
		l22.6,25.7C52.6,167.2,46.4,169.6,38.6,169.6z"/>
</g>
</svg>
